<svg xmlns="http://www.w3.org/2000/svg" width="600px" height="200px" version="1.0" viewBox="0 0 600 200"><g fill="#cb050d"><path d="M99 191c0-2.1 15.9-32.6 23.9-45.8l7.9-13.2h-2.9c-2.3 0-3.8 1.3-8.8 7.9-3.3 4.3-7.5 8.8-9.4 10-5.8 3.6-14.4 5.2-30.4 5.8l-15.3.6v-2.6c0-1.8 1.8-4.6 6-9 3.3-3.6 6-7.4 6-8.5 0-1.7.8-2.2 3.8-2.7 6.7-1 14-3.5 16.4-5.6l2.3-2-5.3.6c-3 .3-7.2 1.3-9.5 2.2l-4 1.6-3.4-3.9c-1.8-2.1-3.3-4.2-3.3-4.5 0-.9 4-1.6 16.5-2.9 19.3-1.9 19.2-1.9 19.8-4 .5-1.8 0-2-5.6-2-9.1 0-39.8 2.8-50.1 4.6-4.8.8-12.3 2.6-16.7 4l-7.8 2.5-4-2.7c-2.3-1.4-6.9-3.6-10.3-4.9-7.3-2.6-7.3-2.6 9.7-5.4 27.1-4.4 63.8-6.9 111.5-7.7l35.5-.6 2.7 5.8c1.6 3.1 2.7 5.8 2.5 5.9-.1.1-3.3-.1-7.2-.6-3.8-.4-12.2-.8-18.6-.8-9.5-.1-11.8.2-12.3 1.4-.4 1.2.5 1.5 5.2 1.5 5.5 0 6 .2 10 4.3 2.5 2.5 4.2 5.2 4.2 6.6 0 1.3-3.8 8.2-8.4 15.5-11.4 17.9-19 31.1-22.5 38.9-2.1 4.6-3.8 7-5.8 8-3.6 1.8-22.3 3.2-22.3 1.7zm10.3-53.8c4.9-2.6 10.7-8.3 10.7-10.4 0-.6-1.5.5-3.2 2.6-2.8 3.1-4.2 3.8-9.5 4.7-3.5.6-6 1.5-5.7 2.1.3.5-.2 1.8-1.2 2.9-1.8 2-1.8 2 1.1 1.3 1.7-.3 5.2-1.8 7.8-3.2zM446.3 148.9c-9.9-1.7-30.5-10.9-42.8-19.2-7.1-4.8-19.6-15.1-24.5-20.1l-3.4-3.6 8.9-9.1c9.7-9.7 28.3-25.9 30-25.9.6 0 3 2.5 5.5 5.6 9.2 11.6 19.8 16.1 27.8 12 3.2-1.7 6.9-6.2 5.9-7.2-.3-.3-4.9-.8-10.2-1.1-5.3-.3-9.1-.9-8.4-1.4 2.9-1.5 21.6-3.1 29.7-2.4 4.6.3 16.6 2.7 26.5 5.3 17.5 4.4 18.8 4.6 32.9 4.7 8.2 0 14.8.3 14.8.7 0 1.5-6.4 5.8-11.2 7.4-6.6 2.3-18.9 2.3-27.3 0-3.3-.8-12.7-3.8-21-6.5-22.7-7.4-23.6-7-5.2 2.1l16.9 8.3-.6 4.6c-1.5 11.4-9.8 29.6-17.3 37.9-6.4 7.2-15.6 9.9-27 7.9z"/><path d="M329 146.3c-5-1.6-6-2.7-6-6.4 0-4.6 4.1-10.3 19.8-27.4 14.4-15.8 28.5-28.5 44.6-39.9 4.3-3.1 7.1-5.6 6.2-5.6-3.8 0-21 6.4-25.7 9.6-5.4 3.6-7.1 5.4-10.1 10.8l-1.7 3.1-6.6-7c-13.6-14.3-16.3-21-9.9-24.7 4.1-2.4 18.8-4.4 40.9-5.7 19.8-1.2 150-1.7 158-.6 5.9.8 30.1-.9 43.4-3 5.2-.9 9.6-1.3 9.9-1 .3.3-1.2 3.1-3.4 6.3-3.2 4.6-5.2 6.3-10.8 9.2l-6.9 3.5-16.6-.1c-9.1 0-23.1-.8-31.1-1.7-26.6-2.9-47.3-3.9-77.1-3.5l-29.6.3-5.5 4.3c-19.5 15-48.3 47.9-46.4 52.9.5 1.3 1.8 1.5 7.9 1l7.2-.5 7.2 5.8c4 3.2 8.6 6.6 10.3 7.6 1.6 1 3 2.1 3 2.5 0 .8-11.2 4.3-20 6.3-15.3 3.5-45.3 5.8-51 3.9zM258 142.2c-10-3.4-12.7-6.6-7.4-9.1 2-.9 2.5-1.7 2-3.4-.5-2.3-.3-2.4 10.8-3.5 6.2-.7 13-1.9 15.2-2.7 3.9-1.5 3.9-1.5-3.4-.9-4 .3-10 1.2-13.2 1.8-5.2 1.1-6 1-8-.6-1.2-1-2.9-1.8-3.8-1.8-3 0 .2-1.8 5.3-3 7.3-1.7 48.6-2.6 51.3-1.1 2.9 1.5 2.8 3.9-.2 5.1-1.3.5-2.7 1.8-3.1 2.9-.7 2.3-2.5 2.7-16 3.6-18.5 1.3-24.7 4.5-8.6 4.5 7.6 0 19-2 25.1-4.4 1.1-.5 2.3.7 4 3.8 1.3 2.5 2.2 4.8 1.9 5.1-.3.3-4.1 1.5-8.5 2.6-11.3 3.1-35.5 3.7-43.4 1.1zM180.2 139.5c-6.6-1.5-10.6-4.4-11-7.7-.4-3 1.1-4.3 7.5-6.9l4.8-2-8.5.6-8.5.6-1.8-3.2c-1-1.7-1.6-3.4-1.3-3.6.8-.9 32.7-2.2 52.3-2.3H233l1.5 3.6c.8 2 1.5 3.8 1.5 3.9 0 .1-11.5 0-25.5-.3-17.8-.3-25.5-.2-25.5.6 0 .6.9 1.4 2 1.7 2.8.9 2.5 1.9-1.2 3.4l-3.3 1.4 4 .8c5.1 1.1 12.1.3 21-2.2l7-2 6.7 3.8c3.7 2.1 6.8 4.1 6.8 4.5.1 2.1-25.8 6.9-36.5 6.7-3.3 0-8.4-.7-11.3-1.4z"/><path d="M238 115.6c-1.7-4.5.7-9 11.8-22L260.5 81h9.3c5 0 9.2.4 9.2.8 0 .5-3.1 4.2-7 8.4-3.8 4.2-7 7.9-7 8.2 0 .4 1.3 0 3-.9 1.6-.8 5-1.8 7.5-2.2 4-.5 4.8-1.1 7.5-5.3 2.8-4.4 3.4-4.8 8.3-5.4 6.6-.8 13.7-.8 13.7 0 0 .3-.9 1.9-2.1 3.5l-2 2.9h2.8c1.5 0 3.4.4 4.2.9 1.1.7 2.6-.5 6-4.5l4.5-5.4h11.9c7 0 11.7.4 11.5.9-.1.6-6.3 8-13.5 16.5L315 115h-10.6c-9 0-10.5-.2-10-1.5.9-2.4-9.4-2-14.1.5-4.6 2.4-13.1 2.7-17.3.5-3.1-1.6-4.7-5.2-3.6-8.2.3-1-.5-.4-1.9 1.2-2.8 3.4-3.2 5.3-1 6.1.8.4 1.5 1 1.5 1.4 0 1.2-8.4 3-14 3-4.4 0-5.2-.3-6-2.4zm31-8.6c1.4-1 2.1-2.2 1.8-2.6-1.3-1.2-7.3 1.1-7.6 2.9-.5 2.3 2.6 2.2 5.8-.3zm32.9-4.6c1.5-1.5 1.4-1.5-.8-.4-1.3.7-4.4 1.6-7 2.1l-4.6.8 5.4-.4c3.3-.3 6.1-1.1 7-2.1zm-5.4-1.4 3-2H297c-2.5 0-5 1.6-5 3.2 0 1.3 1.3.9 4.5-1.2zM189.6 111c-4.6-1.4-6.6-3.9-6.6-8.1 0-7.6 5.6-11.2 25.6-16.5l9.1-2.4 4.4 2c2.4 1.1 3.8 2 3.2 2-2.1 0-1.5 2 .5 2 3.9 0 11.4 3.3 12.9 5.7 1.6 2.4 1.6 2.8-.3 6.1-2.4 4.6-8 7.8-15.9 9.1-7.2 1.3-28.7 1.3-32.9.1zm23.4-9c3.9-2.1 1.8-5-3.6-5-1.3 0-2.4-.4-2.4-.9 0-.9 7.8-4.5 12.3-5.6 1.5-.4 2.6-1 2.3-1.2-.8-.8-14.5 3.6-19.9 6.3-2.6 1.4-5 3.1-5.4 4-.7 1.9 1.3 4.2 4 4.6 2.8.4 10.2-.8 12.7-2.2zM91.6 99.4c-4.1-4.1.5-12.3 17.6-31.4l9.4-10.5 14.2-.3c7.8-.1 14.2 0 14.2.4 0 .6-1.6 2.6-12.5 15.2l-3.7 4.2 3.4-1.9c5.9-3.5 25.8-8.6 25.8-6.6 0 .3-2.5 3.9-5.6 8l-5.6 7.5h-6.3c-4.8 0-6.8.5-8.6 2-2.4 2-2.4 2-.5 3.5 2.5 1.9 8.9 1.9 12.5 0 4-2 10.2-9.3 16.8-19.7l5.6-8.8h12.4c10.3 0 12.4.2 12 1.4-1.2 3-11.8 19.4-16.2 24.8-2.5 3.2-6.4 7-8.7 8.5-3.7 2.5-5.2 2.8-13.9 3.1-16.7.6-25.6-3.3-26.8-11.9l-.6-4.4-3.3 4.4c-4.2 5.7-4.1 7.1.3 7.1 1.9 0 3.5.4 3.5.8 0 1.6-16.5 5.5-25.1 6-7.2.4-8.8.2-10.3-1.4zM514 80.9c-3-.5-12.5-2.2-21-3.9-22.5-4.3-32.2-5.2-53.8-4.8-10.5.2-19.2-.1-19.2-.5 0-1.3 8.7-4.8 15.1-6 9.1-1.6 46.7.6 73.5 4.4 23.4 3.3 44.5 4.2 51.9 2.1 2.2-.6 5.1-1.4 6.5-1.8l2.5-.7-2.3 2.5c-2.8 3.1-9.7 6.6-16.5 8.4-5.8 1.5-27.7 1.7-36.7.3zM422.2 50c.2-.5 10.6-7 23.2-14.5C491.1 8.4 498.3 5 501 10c1.7 3.1 2.4 15.9 1.5 27.3l-.7 9.7h-32.9l.6-4.7c.9-6.5-.8-8.8-5.7-7.9-4.4.8-17.5 7.1-26 12.5-5.3 3.3-7.4 4.1-11.2 4.1-2.6 0-4.6-.4-4.4-1z"/></g></svg>